<?xml version="1.0" encoding="UTF-8"?>
<svg width="1024" height="1024" viewBox="0 0 1024 1024" xmlns="http://www.w3.org/2000/svg">
  <defs>
    <!-- Градиент от синего к фиолетовому -->
    <radialGradient id="backgroundGradient" cx="30%" cy="30%" r="100%">
      <stop offset="0%" style="stop-color:#5BA7F7;stop-opacity:1" />
      <stop offset="100%" style="stop-color:#8E44AD;stop-opacity:1" />
    </radialGradient>
  </defs>
  
  <!-- Фон с градиентом и скругленными углами -->
  <rect width="1024" height="1024" rx="180" ry="180" fill="url(#backgroundGradient)"/>
  
  <!-- Задняя карточка изображения -->
  <rect x="280" y="240" width="320" height="240" rx="24" ry="24" fill="#FFFFFF" opacity="0.3" transform="rotate(-5 440 360)"/>
  
  <!-- Средняя карточка изображения -->
  <rect x="260" y="260" width="320" height="240" rx="24" ry="24" fill="#FFFFFF" opacity="0.6" transform="rotate(-2 420 380)"/>
  
  <!-- Передняя карточка изображения -->
  <rect x="240" y="280" width="320" height="240" rx="24" ry="24" fill="#FFFFFF"/>
  
  <!-- Иконка изображения на передней карточке -->
  <!-- Солнце/круг -->
  <circle cx="340" cy="350" r="20" fill="#5BA7F7"/>
  
  <!-- Горы/треугольники -->
  <path d="M 280 450 L 320 380 L 360 420 L 400 360 L 440 400 L 520 450 Z" fill="#5BA7F7"/>
  
  <!-- Стрелка вправо -->
  <g transform="translate(600, 400)">
    <!-- Тело стрелки -->
    <rect x="0" y="-12" width="80" height="24" rx="12" ry="12" fill="#FFFFFF"/>
    <!-- Острие стрелки -->
    <path d="M 80 0 L 120 -24 L 120 -8 L 100 0 L 120 8 L 120 24 Z" fill="#FFFFFF"/>
  </g>
</svg> 